<?xml version="1.0" encoding="UTF-8"?>
<svg width="513px" height="359px" viewBox="0 0 513 359" version="1.1" xmlns="http://www.w3.org/2000/svg" xmlns:xlink="http://www.w3.org/1999/xlink">
    <title>1</title>
    <g id="页面-1" stroke="none" stroke-width="1" fill="none" fill-rule="evenodd">
        <g id="1" transform="translate(0.6624, 0.0082)" fill="#000000">
            <path d="M73.0264824,0.941664399 C73.5384824,1.4456644 78.9064824,2.3746644 84.9564824,3.0066644 C99.4554824,4.5206644 114.463482,7.4286644 118.616482,9.5286644 C128.957482,14.7576644 131.386482,21.9106644 127.941482,36.9836644 C127.124482,40.5586644 121.649482,58.4456644 115.775482,76.7336644 L105.094482,109.983664 L68.5754824,109.983664 C44.2264824,109.983664 32.3894824,110.316664 33.0564824,110.983664 C33.8904824,111.817664 82.7694824,114.935664 95.9564824,114.995664 C103.044482,115.028664 103.136482,115.421664 99.0204824,128.119664 C69.7814824,218.309664 68.3434824,222.142664 61.3664824,228.445664 C59.2554824,230.352664 55.2894824,233.047664 52.5534824,234.434664 C45.6194824,237.948664 28.2744824,242.672664 13.4564824,245.083664 C6.58148244,246.202664 0.528482439,247.537664 0.00648243897,248.050664 C-0.581517561,248.627664 38.8684824,248.971664 103.506482,248.953664 C200.441482,248.924664 226.148482,248.218664 190.456482,246.562664 C149.302482,244.653664 127.414482,239.605664 122.962482,230.994664 C119.370482,224.048664 120.808482,217.107664 134.467482,175.483664 C138.799482,162.283664 144.669482,144.283664 147.513482,135.483664 C150.357482,126.683664 152.996482,119.142664 153.379482,118.724664 C154.336482,117.679664 172.743482,119.599664 185.456482,122.071664 C210.595482,126.958664 223.042482,133.846664 229.456482,146.419664 L232.956482,153.279664 L233.250482,233.881664 C233.454482,289.906664 233.203482,316.463664 232.428482,320.978664 C231.079482,328.829664 226.420482,337.929664 221.568482,342.189664 C217.194482,346.030664 206.106482,351.249664 197.706482,353.421664 C194.269482,354.310664 186.177482,355.730664 179.724482,356.576664 C173.270482,357.423664 167.795482,358.310664 167.557482,358.549664 C167.318482,358.788664 207.773482,358.983664 257.456482,358.983664 C307.139482,358.983664 347.594482,358.788664 347.355482,358.549664 C347.117482,358.310664 341.642482,357.423664 335.188482,356.576664 C319.712482,354.547664 312.640482,352.660664 302.810482,347.939664 C293.275482,343.359664 287.716482,337.730664 284.239482,329.130664 L281.956482,323.483664 L281.956482,237.983664 L281.956482,152.483664 L284.193482,147.681664 C289.097482,137.153664 301.099482,129.048664 318.456482,124.543664 C328.148482,122.027664 345.005482,119.308664 353.905482,118.825664 L358.853482,118.556664 L372.280482,159.520664 C379.665482,182.049664 386.776482,204.305664 388.082482,208.976664 C391.029482,219.517664 391.169482,227.301664 388.491482,231.693664 C383.425482,240.003664 362.455482,244.642664 321.206482,246.580664 C285.932482,248.237664 313.361482,248.983664 409.515482,248.983664 C505.923482,248.983664 521.869482,248.565664 506.683482,246.436664 C495.762482,244.905664 480.391482,241.711664 472.463482,239.326664 C455.738482,234.294664 448.714482,229.117664 443.144482,217.717664 C440.200482,211.693664 429.359482,179.524664 412.450482,126.642664 C410.720482,121.230664 409.574482,116.531664 409.905482,116.201664 C410.235482,115.871664 423.207482,114.992664 438.731482,114.249664 C473.216482,112.598664 479.456482,112.085664 479.456482,110.903664 C479.456482,110.360664 464.585482,109.983664 443.127482,109.983664 L406.799482,109.983664 L396.125482,76.7336644 C390.255482,58.4456644 384.784482,40.5586644 383.968482,36.9836644 C378.696482,13.8726644 386.041482,7.6336644 423.456482,3.4416644 C431.431482,2.5476644 438.386482,1.4016644 438.912482,0.894664399 C439.496482,0.331664399 405.669482,-0.0173356008 351.984482,0 C299.469482,0.0166643992 264.474482,0.392664399 265.028482,0.934664399 C265.539482,1.4326644 270.231482,2.3136644 275.456482,2.8926644 C304.352482,6.0936644 322.379482,15.5766644 329.386482,31.2616644 C333.313482,40.0506644 355.456482,106.036664 355.456482,108.949664 C355.456482,109.654664 323.800482,109.983664 255.956482,109.983664 C195.985482,109.983664 156.456482,109.617664 156.456482,109.062664 C156.456482,107.930664 168.855482,69.4116644 175.151482,50.9836644 C180.856482,34.2856644 184.330482,26.4266644 187.836482,22.2866644 C195.570482,13.1566644 212.269482,6.2546644 233.668482,3.3446644 C240.426482,2.4256644 246.385482,1.2916644 246.910482,0.824664399 C247.434482,0.357664399 208.316482,-0.0133356008 159.980482,0 C106.694482,0.0146643992 72.4634824,0.385664399 73.0264824,0.941664399" id="路径"></path>
        </g>
    </g>
</svg>