<?xml version="1.0" standalone="no"?><!DOCTYPE svg PUBLIC "-//W3C//DTD SVG 1.1//EN" "http://www.w3.org/Graphics/SVG/1.1/DTD/svg11.dtd"><svg t="1755064771894" class="icon" viewBox="0 0 1024 1024" version="1.1" xmlns="http://www.w3.org/2000/svg" p-id="8724" width="32" height="32" xmlns:xlink="http://www.w3.org/1999/xlink"><path d="M363.911529 874.676706a26.352941 26.352941 0 0 1 0-52.705882l131.764706-0.030118v-228.382118h-105.411764v79.058824a26.352941 26.352941 0 1 1-52.705883 0v-79.058824H265.607529a51.019294 51.019294 0 0 1-51.019294-51.019294v-80.715294c0-169.833412 137.637647-307.471059 307.440941-307.471059s307.471059 137.637647 307.471059 307.440941v80.745412c0 28.190118-22.859294 51.019294-51.049411 51.019294h-230.068706v228.382118h131.764706a26.352941 26.352941 0 1 1 0 52.705882h-316.235295z" fill="#000000" p-id="8725"></path></svg>