<?xml version="1.0" standalone="no"?><!DOCTYPE svg PUBLIC "-//W3C//DTD SVG 1.1//EN" "http://www.w3.org/Graphics/SVG/1.1/DTD/svg11.dtd"><svg t="1756980064357" class="icon" viewBox="0 0 1024 1024" version="1.1" xmlns="http://www.w3.org/2000/svg" p-id="11651" xmlns:xlink="http://www.w3.org/1999/xlink" width="40" height="40"><path d="M704 316.992a38.72 38.72 0 0 0-38.4-39.168c-21.184 0-38.4 17.536-38.4 39.168v78.208c0 64.832-51.52 117.376-115.072 117.376s-115.072-52.48-115.072-117.376V316.992a38.784 38.784 0 0 0-38.4-39.168c-21.12 0-38.336 17.536-38.336 39.168v78.208c0 108.096 85.888 195.648 191.808 195.648 105.92 0 191.808-87.552 191.808-195.648V316.992z m172.16 521.216a73.536 73.536 0 0 1-56.96 25.792H204.8c-22.592 0-41.92-8.768-57.024-25.92a76.352 76.352 0 0 1-19.328-60.48l37.632-547.52A76.864 76.864 0 0 1 242.368 160h538.88c39.68 0 72.32 30.08 76.352 70.336l37.952 547.456c2.304 22.912-4.288 43.328-19.392 60.416z" fill="#ffffff" p-id="11652"></path></svg>