<?xml version="1.0" standalone="no"?>
<!DOCTYPE svg PUBLIC "-//W3C//DTD SVG 20010904//EN" "http://www.w3.org/TR/2001/REC-SVG-20010904/DTD/svg10.dtd">
<svg xmlns="http://www.w3.org/2000/svg" version="1.0" width="1224.000000pt" height="226.000000pt" viewBox="0 0 1224.000000 226.000000" preserveAspectRatio="xMidYMid meet">
<metadata>
Created by potrace 1.16, written by Peter Selinger 2001-2019
<meta name="Producer" content="Online-Convert"/></metadata>
<g transform="translate(0.000000,226.000000) scale(0.100000,-0.100000)" fill="#FFFFFF" stroke="none">
<path d="M5813 2231 c-167 -121 -428 -625 -573 -1106 -116 -389 -106 -521 42 -533 79 -6 144 32 225 131 91 111 84 141 -14 66 -65 -49 -135 -81 -157 -73 -31 12 -13 112 58 330 37 113 54 150 84 185 213 244 404 559 486 800 45 131 46 161 7 200 -41 40 -102 41 -158 0z m32 -238 c-19 -80 -195 -405 -257 -475 -27 -31 -29 -31 -22 -8 17 68 189 398 253 487 22 31 35 29 26 -4z"/>
<path d="M2491 1929 c-144 -42 -261 -213 -417 -611 -36 -92 -74 -172 -83 -177 -21 -11 -266 -51 -314 -51 -19 0 -38 4 -42 9 -6 11 108 297 165 412 84 168 177 283 235 294 41 8 56 -5 62 -54 10 -73 53 -24 53 61 0 38 -6 54 -29 80 -25 29 -35 32 -95 36 -76 5 -109 -5 -179 -56 -111 -80 -251 -342 -392 -735 -31 -87 -46 -101 -125 -122 -64 -17 -100 -40 -100 -64 0 -29 29 -46 78 -46 70 0 71 -10 19 -182 -109 -358 -132 -568 -67 -603 33 -18 79 -12 104 13 24 24 46 100 46 160 0 61 48 267 106 452 47 151 62 190 82 203 25 16 275 72 325 72 48 0 47 -24 -3 -185 -81 -261 -122 -453 -124 -571 -1 -77 2 -95 18 -113 28 -31 76 -28 109 7 23 24 29 44 42 138 18 128 40 225 95 415 56 193 99 322 114 337 7 7 65 26 129 42 130 33 157 44 157 65 0 12 -23 15 -117 17 -141 4 -140 2 -92 121 83 210 198 409 274 475 46 41 92 44 101 7 3 -14 4 -31 1 -38 -3 -8 -1 -20 4 -28 23 -35 77 83 64 141 -16 71 -107 106 -204 79z"/>
<path d="M717 1850 c-14 -11 -40 -45 -58 -76 -19 -33 -42 -59 -57 -65 -14 -6 -142 -19 -285 -29 -147 -11 -271 -25 -286 -33 -28 -13 -39 -50 -21 -72 20 -24 83 -26 260 -5 214 25 266 25 274 5 3 -9 -24 -79 -59 -156 -125 -268 -188 -433 -220 -569 -19 -82 -20 -220 -1 -263 34 -79 126 -122 213 -99 70 19 116 53 183 138 55 69 75 114 50 114 -5 0 -37 -20 -69 -45 -65 -49 -134 -84 -167 -85 -11 0 -29 9 -39 20 -15 17 -17 32 -12 97 9 136 78 321 255 686 92 191 96 197 131 207 20 5 146 23 281 40 234 29 405 55 443 66 9 3 17 12 17 21 0 17 -43 16 -425 -9 -93 -6 -197 -11 -230 -12 l-60 -1 -3 57 c-2 46 -7 61 -25 73 -29 21 -59 19 -90 -5z"/>
<path d="M11885 1678 c-32 -19 -51 -46 -110 -164 -30 -61 -61 -119 -68 -128 -10 -14 -35 -20 -105 -27 -107 -10 -132 -20 -132 -54 0 -19 7 -26 38 -34 20 -6 59 -11 85 -11 34 0 49 -4 54 -16 3 -9 -9 -57 -27 -107 -99 -279 -94 -429 17 -493 39 -24 52 -26 114 -22 58 5 78 11 123 41 30 20 75 63 100 96 74 96 56 121 -37 52 -29 -21 -66 -46 -84 -55 -44 -22 -106 -21 -126 2 -37 41 -12 168 74 379 42 100 55 123 77 132 15 5 86 17 157 25 72 9 145 21 162 26 36 13 49 36 31 58 -11 12 -35 14 -155 8 -172 -9 -172 -9 -119 103 35 74 46 141 28 167 -9 14 -47 34 -64 34 -7 0 -22 -6 -33 -12z"/>
<path d="M1092 1484 c-33 -23 -31 -87 4 -119 67 -62 169 -1 132 80 -22 49 -92 70 -136 39z"/>
<path d="M9018 1406 c-87 -36 -148 -75 -205 -131 -122 -122 -87 -238 101 -336 47 -24 86 -49 86 -56 0 -7 -37 -31 -82 -53 -157 -79 -208 -132 -193 -200 20 -92 204 -120 345 -52 116 55 163 118 164 220 1 69 9 80 74 108 32 14 43 38 20 47 -7 2 -43 0 -80 -6 -64 -10 -69 -9 -100 15 -18 14 -71 45 -118 69 -137 71 -147 93 -77 163 94 93 267 149 275 88 2 -13 -4 -34 -12 -47 -43 -65 -1 -73 60 -11 38 37 44 49 44 85 0 23 -5 51 -10 62 -33 60 -185 79 -292 35z"/>
<path d="M10339 1356 c-68 -18 -137 -67 -221 -154 -91 -96 -130 -151 -169 -243 -53 -124 -40 -237 31 -274 78 -41 175 -5 296 110 43 40 82 71 86 69 5 -3 8 -23 8 -45 0 -50 20 -97 54 -128 20 -19 40 -26 84 -29 69 -5 128 20 178 73 34 38 71 112 60 122 -4 4 -43 -12 -87 -36 -87 -47 -125 -49 -131 -8 -6 32 27 146 78 273 24 61 44 125 44 142 0 40 -36 67 -79 57 -24 -5 -32 -2 -51 24 -12 17 -29 35 -38 40 -32 16 -97 19 -143 7z m109 -118 c36 -36 -20 -134 -164 -287 -92 -98 -147 -141 -182 -141 -23 0 -24 3 -19 37 17 101 150 280 278 373 45 32 68 37 87 18z"/>
<path d="M2819 1322 c-77 -29 -132 -68 -208 -147 -141 -149 -206 -281 -199 -405 3 -63 7 -73 36 -103 30 -30 37 -32 100 -32 60 0 75 4 126 35 31 19 92 68 133 108 42 39 77 72 78 72 1 0 5 -27 8 -59 9 -101 55 -151 139 -151 77 0 168 74 168 136 0 35 -19 39 -65 14 -57 -31 -75 -23 -75 34 0 50 26 140 76 264 40 99 42 133 12 162 -19 18 -32 21 -70 17 -41 -3 -51 0 -70 21 -48 52 -109 63 -189 34z m115 -108 c26 -10 20 -73 -11 -119 -47 -71 -160 -201 -215 -247 -89 -76 -128 -88 -128 -40 0 91 178 334 288 391 42 23 44 23 66 15z"/>
<path d="M7987 1328 c-11 -8 -31 -70 -56 -168 -21 -85 -64 -225 -96 -310 -220 -600 -254 -730 -204 -794 37 -47 113 -30 137 31 6 15 25 82 42 147 18 66 54 182 81 257 85 239 94 253 133 211 45 -50 166 -54 260 -8 105 52 221 192 267 325 22 64 25 168 5 214 -7 18 -27 45 -44 59 -88 74 -210 62 -349 -33 -23 -16 -44 -29 -46 -29 -2 0 -7 18 -11 39 -9 61 -74 92 -119 59z m413 -150 c31 -57 -33 -214 -128 -314 -79 -81 -162 -105 -209 -58 -22 22 -24 31 -19 67 16 100 107 229 208 297 75 50 123 52 148 8z"/>
<path d="M3566 1309 c-34 -27 -96 -152 -175 -350 -66 -169 -73 -211 -40 -253 18 -23 28 -27 62 -24 38 3 45 8 101 83 64 85 252 280 299 310 15 10 30 15 34 12 3 -4 -6 -42 -21 -86 -59 -180 -15 -285 119 -285 66 0 136 37 198 103 35 37 47 58 47 81 0 39 -14 39 -93 -5 -77 -43 -117 -46 -117 -11 0 13 18 75 40 136 42 118 47 153 28 195 -39 86 -177 68 -312 -40 -90 -72 -102 -72 -71 2 24 57 20 108 -11 132 -34 27 -54 26 -88 0z"/>
<path d="M6057 1316 c-164 -59 -359 -280 -397 -450 -16 -72 -4 -132 36 -175 31 -35 35 -36 101 -36 58 0 77 5 133 35 35 19 93 61 127 93 34 32 66 56 71 53 5 -3 12 -24 15 -47 11 -83 77 -135 157 -123 53 7 75 17 113 53 36 32 57 72 57 106 0 31 -10 31 -65 -1 -25 -14 -55 -24 -67 -22 -21 3 -23 8 -22 63 1 45 13 90 48 183 47 126 53 159 36 192 -13 25 -64 35 -101 20 -28 -12 -32 -11 -62 18 -54 52 -108 63 -180 38z m123 -125 c30 -57 -3 -121 -126 -247 -152 -157 -269 -195 -220 -73 41 101 194 276 280 319 50 25 53 25 66 1z"/>
<path d="M6790 1300 c-32 -35 -123 -231 -174 -378 -46 -132 -49 -201 -10 -231 55 -44 74 -33 198 113 133 155 243 272 251 264 4 -3 -3 -38 -15 -77 -46 -154 -35 -220 39 -242 55 -16 94 6 206 118 88 88 125 113 111 77 -14 -37 -18 -123 -7 -157 7 -20 28 -50 47 -67 29 -25 43 -30 84 -30 64 0 91 11 144 60 50 47 75 95 58 112 -9 9 -26 4 -67 -16 -108 -52 -126 -21 -75 128 39 116 40 169 3 193 -63 41 -152 5 -285 -117 l-71 -64 6 34 c3 19 12 59 21 89 22 75 9 123 -38 145 -44 21 -61 20 -115 -5 -49 -22 -111 -68 -183 -138 -26 -24 -50 -43 -52 -40 -3 3 6 32 19 65 33 79 34 157 3 178 -34 24 -67 19 -98 -14z"/>
<path d="M4423 1298 c-28 -31 -36 -49 -72 -155 -66 -194 -77 -295 -40 -369 58 -121 209 -112 365 22 29 24 55 44 58 44 21 0 -27 -151 -93 -295 -82 -176 -203 -320 -318 -377 -56 -28 -70 -30 -130 -26 -125 9 -210 72 -278 208 -58 115 -87 82 -45 -53 50 -161 162 -262 319 -288 270 -45 530 205 699 671 76 208 147 502 135 560 -10 54 -73 78 -119 46 -11 -8 -47 -59 -80 -113 -111 -183 -320 -367 -355 -312 -12 19 -3 63 42 205 46 143 50 200 16 232 -31 29 -78 29 -104 0z"/>
<path d="M11031 1296 c-23 -24 -110 -239 -175 -433 -28 -81 -35 -117 -31 -144 8 -48 37 -73 82 -73 42 0 73 32 142 145 94 152 222 289 288 306 17 4 38 -1 58 -11 48 -26 69 -18 73 25 3 31 -2 41 -33 68 -64 56 -157 39 -263 -47 -23 -19 -45 -32 -48 -29 -3 3 -1 21 4 39 24 76 25 122 2 151 -27 34 -68 36 -99 3z"/>
<path d="M985 1175 c-58 -61 -159 -343 -160 -443 0 -59 2 -66 33 -93 23 -20 43 -29 68 -29 64 0 154 63 154 108 0 22 -3 23 -39 17 -24 -4 -42 -2 -46 4 -7 13 53 194 95 283 52 109 34 188 -41 188 -23 0 -41 -9 -64 -35z"/>
<path d="M9500 810 c-60 -60 -13 -160 75 -160 37 0 62 16 81 51 33 65 -13 129 -92 129 -30 0 -50 -6 -64 -20z"/>
</g>
</svg>
